<svg width="24" height="24" viewBox="0 0 24 24" fill="none" xmlns="http://www.w3.org/2000/svg">
<path d="M12.9954 10.9994L13.002 4.93082C13.002 4.66476 12.8963 4.40958 12.7081 4.22143C12.52 4.03329 12.2648 3.92757 11.9988 3.92756C11.7327 3.92754 11.4775 4.03321 11.2894 4.22133C11.1013 4.40945 10.9956 4.66461 10.9956 4.93068L11.0031 10.9993L4.93451 10.9918C4.66845 10.9918 4.41329 11.0975 4.22517 11.2856C4.03705 11.4737 3.93137 11.7289 3.93139 11.9949C3.93141 12.261 4.03712 12.5162 4.22527 12.7043C4.41342 12.8925 4.66859 12.9982 4.93466 12.9982L11.0033 12.9915L10.9966 19.0602C10.9961 19.1921 11.0217 19.3228 11.0719 19.4447C11.1222 19.5667 11.196 19.6775 11.2893 19.7708C11.3826 19.864 11.4934 19.9379 11.6154 19.9881C11.7373 20.0384 11.868 20.064 11.9999 20.0634C12.1318 20.064 12.2625 20.0384 12.3844 19.9882C12.5064 19.938 12.6172 19.8641 12.7105 19.7709C12.8037 19.6776 12.8776 19.5668 12.9278 19.4448C12.978 19.3229 13.0036 19.1922 13.003 19.0603L12.9955 12.9917L19.0641 12.9992C19.196 12.9997 19.3267 12.9742 19.4487 12.924C19.5706 12.8737 19.6814 12.7999 19.7747 12.7066C19.8679 12.6134 19.9418 12.5026 19.992 12.3806C20.0422 12.2587 20.0678 12.128 20.0673 11.9961C20.0678 11.8642 20.0422 11.7335 19.992 11.6115C19.9417 11.4896 19.8679 11.3787 19.7746 11.2855C19.6813 11.1922 19.5705 11.1183 19.4486 11.0681C19.3266 11.0179 19.1959 10.9923 19.064 10.9928L12.9954 10.9994Z" fill="white"/>
</svg>
