<svg width="2233" height="1173" viewBox="0 0 2233 1173" fill="none" xmlns="http://www.w3.org/2000/svg">
<rect x="323" y="77" width="1440" height="941" fill="#F5F5F5"/>
<path d="M323 486C389.052 416.063 557.384 297.884 702.3 384.66C883.444 493.129 1059.99 392.808 963.901 73" stroke="white" stroke-width="116" stroke-linecap="square"/>
<path d="M261.856 799.91C268.592 703.949 323.834 505.831 490.917 481.054C699.77 450.082 772.687 260.566 495.612 74.1815" stroke="#0D83F2" stroke-width="4" stroke-linecap="square"/>
<path d="M1364.58 1070.84C1370.41 987.805 1418.21 816.374 1562.79 794.934C1743.51 768.135 1806.61 604.146 1566.85 442.867" stroke="#0D83F2" stroke-width="4" stroke-linecap="square"/>
<path d="M2150.76 702.424C2083.22 770.918 1912.37 885.435 1769.36 795.55C1590.6 683.195 1411.93 779.681 1501.09 1101.49" stroke="white" stroke-width="116" stroke-linecap="square"/>
</svg>
